<svg width="24" height="24" viewBox="0 0 24 24" fill="none" xmlns="http://www.w3.org/2000/svg">
<path fill-rule="evenodd" clip-rule="evenodd" d="M10.6645 3.06671C5.93394 3.06671 2.09908 6.84242 2.09908 11.5C2.09908 16.1576 5.93394 19.9333 10.6645 19.9333C12.0821 19.9333 13.4165 19.595 14.5917 18.9968C15.1066 18.7348 15.7398 18.9333 16.006 19.4403C16.2722 19.9472 16.0706 20.5707 15.5556 20.8328C14.0895 21.579 12.4254 22 10.6645 22C4.77465 22 0 17.299 0 11.5C0 5.70101 4.77465 1 10.6645 1C15.8799 1 20.2209 4.6861 21.1467 9.55663L22.0147 7.87603C22.2775 7.36733 22.9093 7.16466 23.426 7.42336C23.9427 7.68206 24.1485 8.30417 23.8858 8.81287L21.9015 12.6545C21.2926 13.8334 19.7313 14.1536 18.695 13.3121L15.0946 10.4073C14.6474 10.0442 14.5838 9.39296 14.9526 8.95266C15.3214 8.51236 15.9829 8.44978 16.4301 8.81287L19.2183 11.0583C18.985 6.60602 15.2445 3.06671 10.6645 3.06671Z" fill="#232528"/>
</svg>
